<svg xmlns="http://www.w3.org/2000/svg" width="36" height="36" viewBox="0 0 36 36" fill="none">
  <path fill-rule="evenodd" clip-rule="evenodd" d="M18 0C8.05982 0 0 8.26115 0 18.459C0 26.6157 5.15893 33.5268 12.3107 35.9698C13.2107 36.1385 13.5402 35.568 13.5402 35.0777C13.5402 34.6358 13.5241 33.4786 13.5161 31.9356C8.50982 33.0526 7.44911 29.4605 7.44911 29.4605C6.62946 27.3309 5.44821 26.7603 5.44821 26.7603C3.81696 25.6112 5.56875 25.6353 5.56875 25.6353C7.37679 25.7639 8.325 27.5398 8.325 27.5398C9.93214 30.3605 12.5357 29.5489 13.5643 29.0747C13.725 27.8854 14.1911 27.0657 14.7054 26.6077C10.7116 26.1416 6.50893 24.5584 6.50893 17.4866C6.50893 15.4696 7.20804 13.8222 8.35714 12.5364C8.17232 12.0703 7.55357 10.1898 8.53393 7.6504C8.53393 7.6504 10.0446 7.15216 13.4839 9.5389C14.9223 9.12905 16.4571 8.92815 17.992 8.92011C19.5187 8.92815 21.0616 9.12905 22.5 9.5389C25.9393 7.15216 27.442 7.6504 27.442 7.6504C28.4223 10.1898 27.8036 12.0703 27.6188 12.5364C28.7679 13.8302 29.467 15.4776 29.467 17.4866C29.467 24.5745 25.2562 26.1335 21.2464 26.5916C21.8893 27.1621 22.4679 28.2872 22.4679 30.0069C22.4679 32.474 22.4437 34.467 22.4437 35.0697C22.4437 35.5599 22.7652 36.1385 23.6813 35.9537C30.8491 33.5187 36 26.6077 36 18.459C36 8.26115 27.9402 0 18 0Z" fill="white"/>
</svg>