<svg xmlns="http://www.w3.org/2000/svg" width="36" height="36" viewBox="0 0 36 36" fill="none">
  <path d="M18 0C13.1115 0 12.4985 0.0207208 10.5786 0.10832C8.66273 0.195776 7.35425 0.500015 6.20924 0.945012C5.02559 1.40501 4.02177 2.02049 3.0211 3.02117C2.02042 4.02184 1.40494 5.02566 0.944941 6.20932C0.499943 7.35425 0.195705 8.66273 0.108248 10.5786C0.0206494 12.4985 0 13.1115 0 18C0 22.8885 0.0206494 23.5015 0.108248 25.4214C0.195705 27.3373 0.499943 28.6458 0.944941 29.7907C1.40494 30.9743 2.02042 31.9782 3.0211 32.9789C4.02177 33.9796 5.02559 34.5951 6.20924 35.0551C7.35425 35.5 8.66273 35.8043 10.5786 35.8917C12.4985 35.9793 13.1115 36 18 36C22.8885 36 23.5015 35.9793 25.4214 35.8917C27.3373 35.8043 28.6458 35.5 29.7907 35.0551C30.9743 34.5951 31.9782 33.9796 32.9789 32.9789C33.9796 31.9782 34.5951 30.9743 35.0551 29.7907C35.5 28.6458 35.8043 27.3373 35.8917 25.4214C35.9793 23.5015 36 22.8885 36 18C36 13.1115 35.9793 12.4985 35.8917 10.5786C35.8043 8.66273 35.5 7.35425 35.0551 6.20932C34.5951 5.02566 33.9796 4.02184 32.9789 3.02117C31.9782 2.02049 30.9743 1.40501 29.7907 0.945012C28.6458 0.500015 27.3373 0.195776 25.4214 0.10832C23.5015 0.0207208 22.8885 0 18 0ZM18 3.24331C22.8062 3.24331 23.3755 3.2616 25.2735 3.3482C27.0285 3.4283 27.9816 3.72153 28.6159 3.96797C29.4561 4.2945 30.0557 4.68462 30.6855 5.31446C31.3155 5.9443 31.7055 6.54399 32.032 7.38412C32.2785 8.01839 32.5718 8.97147 32.6518 10.7265C32.7384 12.6245 32.7568 13.1938 32.7568 18C32.7568 22.8062 32.7384 23.3755 32.6518 25.2735C32.5718 27.0285 32.2785 27.9816 32.032 28.6159C31.7055 29.4561 31.3155 30.0557 30.6855 30.6855C30.0557 31.3155 29.4561 31.7055 28.6159 32.032C27.9816 32.2785 27.0285 32.5718 25.2735 32.6518C23.3758 32.7384 22.8066 32.7568 18 32.7568C13.1934 32.7568 12.6243 32.7384 10.7265 32.6518C8.97147 32.5718 8.01839 32.2785 7.38412 32.032C6.54392 31.7055 5.9443 31.3155 5.31439 30.6855C4.68455 30.0557 4.29443 29.4561 3.96797 28.6159C3.72146 27.9816 3.42822 27.0285 3.34813 25.2735C3.26153 23.3755 3.24324 22.8062 3.24324 18C3.24324 13.1938 3.26153 12.6245 3.34813 10.7265C3.42822 8.97147 3.72146 8.01839 3.96797 7.38412C4.29443 6.54399 4.68455 5.9443 5.31439 5.31446C5.9443 4.68462 6.54392 4.2945 7.38412 3.96797C8.01839 3.72153 8.97147 3.4283 10.7265 3.3482C12.6245 3.2616 13.1938 3.24331 18 3.24331Z" fill="white"/>
  <path d="M17.9991 24C14.6854 24 11.9991 21.3137 11.9991 18C11.9991 14.6862 14.6854 12 17.9991 12C21.3128 12 23.9991 14.6862 23.9991 18C23.9991 21.3137 21.3128 24 17.9991 24ZM17.9991 8.75671C12.8942 8.75671 8.75586 12.895 8.75586 18C8.75586 23.1049 12.8942 27.2432 17.9991 27.2432C23.104 27.2432 27.2423 23.1049 27.2423 18C27.2423 12.895 23.104 8.75671 17.9991 8.75671Z" fill="white"/>
  <path d="M29.7692 8.39153C29.7692 9.58448 28.8021 10.5515 27.6092 10.5515C26.4163 10.5515 25.4492 9.58448 25.4492 8.39153C25.4492 7.19859 26.4163 6.23157 27.6092 6.23157C28.8021 6.23157 29.7692 7.19859 29.7692 8.39153Z" fill="white"/>
</svg>