<svg xmlns="http://www.w3.org/2000/svg" width="36" height="36" viewBox="0 0 36 36" fill="none">
  <path d="M19.359 16.2376V16.1819C19.3472 16.2007 19.3348 16.2195 19.3223 16.2376H19.359Z" fill="white"/>
  <path d="M33.3385 0H2.6593C1.1909 0 0 1.15517 0 2.57887V33.4218C0 34.8448 1.1909 36 2.6593 36H33.3385C34.8091 36 36 34.8441 36 33.4218V2.57887C36 1.15445 34.8084 0 33.3385 0ZM10.9118 30.1366H5.47448V13.8809H10.9118V30.1366ZM8.19351 11.6603H8.15709C6.33323 11.6603 5.15326 10.4118 5.15326 8.85198C5.15326 7.25747 6.36965 6.04367 8.2292 6.04367C10.0895 6.04367 11.2337 7.25747 11.2702 8.85198C11.2702 10.4118 10.0887 11.6603 8.19351 11.6603ZM30.519 30.1366H25.0816V21.438C25.0816 19.2536 24.295 17.7626 22.3276 17.7626C20.8257 17.7626 19.9313 18.7679 19.5372 19.7393C19.3937 20.086 19.3588 20.5709 19.3588 21.0573V30.1358H13.9215C13.9215 30.1358 13.9928 15.4038 13.9215 13.8802H19.3588V16.1811C20.0813 15.0737 21.3735 13.4966 24.26 13.4966C27.8371 13.4966 30.5197 15.8207 30.5197 20.8141L30.519 30.1366Z" fill="white"/>
</svg>