<svg xmlns="http://www.w3.org/2000/svg" width="24" height="25" viewBox="0 0 24 25" fill="none">
    <path d="M12 22.6877C11.7679 22.6877 11.5714 22.6073 11.4107 22.4466L3.05357 14.3841C2.96429 14.3127 2.84152 14.1966 2.68527 14.0359C2.52902 13.8752 2.28125 13.5828 1.94196 13.1587C1.60268 12.7346 1.29911 12.2993 1.03125 11.8529C0.763393 11.4065 0.524554 10.8663 0.314732 10.2323C0.104911 9.59841 0 8.98234 0 8.38413C0 6.41984 0.566964 4.88413 1.70089 3.77699C2.83482 2.66984 4.40179 2.11627 6.40179 2.11627C6.95536 2.11627 7.52009 2.21225 8.09598 2.40422C8.67188 2.59618 9.20759 2.85511 9.70313 3.181C10.1987 3.5069 10.625 3.8127 10.9821 4.09841C11.3393 4.38413 11.6786 4.6877 12 5.00913C12.3214 4.6877 12.6607 4.38413 13.0179 4.09841C13.375 3.8127 13.8013 3.5069 14.2969 3.181C14.7924 2.85511 15.3281 2.59618 15.904 2.40422C16.4799 2.21225 17.0446 2.11627 17.5982 2.11627C19.5982 2.11627 21.1652 2.66984 22.2991 3.77699C23.433 4.88413 24 6.41984 24 8.38413C24 10.3573 22.9777 12.3663 20.933 14.4109L12.5893 22.4466C12.4286 22.6073 12.2321 22.6877 12 22.6877Z" fill="white"/>
</svg>