<svg xmlns="http://www.w3.org/2000/svg" width="44" height="24" viewBox="0 0 44 24" fill="none">
  <path d="M31.4375 1.06643C31.2911 1.21169 31.1748 1.3845 31.0955 1.57491C31.0162 1.76531 30.9753 1.96954 30.9753 2.17581C30.9753 2.38208 31.0162 2.5863 31.0955 2.77671C31.1748 2.96711 31.2911 3.13993 31.4375 3.28518L38.625 10.4727H1.84375C1.42935 10.4727 1.03192 10.6373 0.738896 10.9303C0.44587 11.2234 0.28125 11.6208 0.28125 12.0352C0.28125 12.4496 0.44587 12.847 0.738896 13.14C1.03192 13.4331 1.42935 13.5977 1.84375 13.5977H38.5938L31.4375 20.7383C31.1465 21.0311 30.9831 21.4271 30.9831 21.8399C30.9831 22.2527 31.1465 22.6487 31.4375 22.9414C31.7303 23.2324 32.1263 23.3958 32.5391 23.3958C32.9519 23.3958 33.3479 23.2324 33.6406 22.9414L43.5781 13.0039C43.7119 12.8756 43.8183 12.7216 43.891 12.5511C43.9637 12.3805 44.0012 12.1971 44.0012 12.0117C44.0012 11.8264 43.9637 11.6429 43.891 11.4724C43.8183 11.3019 43.7119 11.1479 43.5781 11.0196L33.6563 1.06643C33.511 0.919982 33.3382 0.803742 33.1478 0.724415C32.9574 0.645089 32.7531 0.604248 32.5469 0.604248C32.3406 0.604248 32.1364 0.645089 31.946 0.724415C31.7556 0.803742 31.5828 0.919982 31.4375 1.06643Z" fill="white"/>
</svg>