<svg xmlns="http://www.w3.org/2000/svg" width="19" height="19" viewBox="0 0 19 19" fill="none">
    <path d="M18.0099 3.50973L15.8959 1.39629C15.2365 0.737165 14.1644 0.737165 13.505 1.39629L11.5186 3.38669L15.988 7.85471L17.979 5.86889C18.671 5.23999 18.671 4.16851 18.0099 3.50973ZM9.33135 2.78908C8.78208 2.23998 7.89418 2.23998 7.34491 2.78908L3.16527 6.96251C2.94552 7.18219 2.94552 7.53798 3.16527 7.75769L3.56298 8.15528C3.78272 8.37495 4.13862 8.37495 4.3584 8.15528L8.33901 4.18292L9.53214 5.37568L3.80737 11.0966C1.96159 12.9418 0.796941 15.3642 0.506834 17.9586C0.449692 18.4947 0.902434 18.9541 1.43834 18.8972C4.03559 18.6116 6.45631 17.4471 8.30596 15.5976L15.2228 8.68293L9.33135 2.78908Z" fill="white"/>
</svg>