<svg xmlns="http://www.w3.org/2000/svg" width="44" height="24" viewBox="0 0 44 24" fill="none">
  <path d="M12.5625 22.9336C12.7089 22.7884 12.8252 22.6156 12.9045 22.4252C12.9838 22.2347 13.0247 22.0305 13.0247 21.8243C13.0247 21.618 12.9838 21.4138 12.9045 21.2234C12.8252 21.0329 12.7089 20.8601 12.5625 20.7149L5.375 13.5274L42.1562 13.5274C42.5707 13.5274 42.9681 13.3628 43.2611 13.0697C43.5541 12.7767 43.7188 12.3793 43.7188 11.9649C43.7188 11.5505 43.5541 11.1531 43.2611 10.86C42.9681 10.567 42.5707 10.4024 42.1562 10.4024L5.40625 10.4024L12.5625 3.26175C12.8535 2.969 13.0169 2.57298 13.0169 2.16019C13.0169 1.7474 12.8535 1.35138 12.5625 1.05863C12.2697 0.767611 11.8737 0.604265 11.4609 0.604265C11.0481 0.604265 10.6521 0.767611 10.3594 1.05863L0.421873 10.9961C0.28812 11.1245 0.181696 11.2785 0.108994 11.449C0.0362916 11.6195 -0.00118542 11.803 -0.00118542 11.9883C-0.00118542 12.1737 0.0362916 12.3571 0.108994 12.5276C0.181696 12.6981 0.28812 12.8522 0.421873 12.9805L10.3437 22.9336C10.489 23.0801 10.6618 23.1963 10.8522 23.2756C11.0426 23.355 11.2469 23.3958 11.4531 23.3958C11.6594 23.3958 11.8636 23.355 12.054 23.2756C12.2444 23.1963 12.4172 23.0801 12.5625 22.9336Z" fill="white"/>
</svg>