<svg xmlns="http://www.w3.org/2000/svg" width="88" height="88" viewBox="0 0 88 88" fill="none">
    <circle cx="43.7031" cy="43.7009" r="34" fill="black"/>
    <mask id="path-2-inside-1_334_261" fill="white">
        <path d="M43.9748 12.7022C50.5192 12.7603 56.8773 14.8881 62.1383 18.7808C67.3994 22.6736 71.2935 28.1315 73.2628 34.3728C75.2321 40.6141 75.1757 47.3185 73.1015 53.5257C71.0273 59.733 67.0419 65.1245 61.716 68.9281C56.3901 72.7316 49.9971 74.7521 43.4527 74.7C36.9083 74.6478 30.5483 72.5259 25.2837 68.638C20.019 64.7501 16.1199 59.2957 14.1449 53.0562C12.1698 46.8168 12.2201 40.1123 14.2886 33.9031L18.0562 35.1582C16.2527 40.572 16.2088 46.4176 17.9308 51.8578C19.6529 57.298 23.0525 62.0537 27.6427 65.4435C32.233 68.8334 37.7783 70.6835 43.4843 70.729C49.1904 70.7744 54.7645 69.0128 59.4081 65.6965C64.0517 62.3801 67.5266 57.6793 69.3351 52.2672C71.1436 46.8551 71.1928 41.0095 69.4757 35.5677C67.7587 30.1259 64.3634 25.3672 59.7763 21.9731C55.1892 18.579 49.6456 16.7238 43.9396 16.6731L43.9748 12.7022Z"/>
    </mask>
    <path d="M43.9748 12.7022C50.5192 12.7603 56.8773 14.8881 62.1383 18.7808C67.3994 22.6736 71.2935 28.1315 73.2628 34.3728C75.2321 40.6141 75.1757 47.3185 73.1015 53.5257C71.0273 59.733 67.0419 65.1245 61.716 68.9281C56.3901 72.7316 49.9971 74.7521 43.4527 74.7C36.9083 74.6478 30.5483 72.5259 25.2837 68.638C20.019 64.7501 16.1199 59.2957 14.1449 53.0562C12.1698 46.8168 12.2201 40.1123 14.2886 33.9031L18.0562 35.1582C16.2527 40.572 16.2088 46.4176 17.9308 51.8578C19.6529 57.298 23.0525 62.0537 27.6427 65.4435C32.233 68.8334 37.7783 70.6835 43.4843 70.729C49.1904 70.7744 54.7645 69.0128 59.4081 65.6965C64.0517 62.3801 67.5266 57.6793 69.3351 52.2672C71.1436 46.8551 71.1928 41.0095 69.4757 35.5677C67.7587 30.1259 64.3634 25.3672 59.7763 21.9731C55.1892 18.579 49.6456 16.7238 43.9396 16.6731L43.9748 12.7022Z" stroke="#06F0FF" stroke-width="8" mask="url(#path-2-inside-1_334_261)"/>
</svg>