<svg xmlns="http://www.w3.org/2000/svg" width="19" height="18" viewBox="0 0 19 18" fill="none">
    <path d="M7.05226 6.36484C7.05226 6.36484 3.68327 6.73798 1.43585 6.98746C1.23328 7.01198 1.05417 7.14738 0.987007 7.35315C0.919841 7.55891 0.987007 7.7732 1.13627 7.9086C2.80584 9.43211 5.31446 11.7136 5.31446 11.7136C5.31233 11.7136 4.62573 15.0325 4.16943 17.2469C4.13105 17.4473 4.20354 17.6595 4.37839 17.7864C4.55217 17.9132 4.77606 17.9154 4.95197 17.8162C6.91793 16.6989 9.8626 15.0187 9.8626 15.0187C9.8626 15.0187 12.8083 16.6989 14.7711 17.8173C14.9502 17.9154 15.1741 17.9132 15.3479 17.7864C15.5227 17.6595 15.5952 17.4473 15.5558 17.248C15.0995 15.0325 14.4139 11.7136 14.4139 11.7136C14.4139 11.7136 16.9226 9.43211 18.5921 7.9118C18.7414 7.77214 18.8075 7.55784 18.7414 7.35315C18.6753 7.14845 18.4962 7.01305 18.2936 6.98959C16.0462 6.73798 12.6761 6.36484 12.6761 6.36484C12.6761 6.36484 11.2795 3.27517 10.3488 1.21539C10.2613 1.03095 10.078 0.901947 9.8626 0.901947C9.64724 0.901947 9.4628 1.03202 9.37964 1.21539C8.44784 3.27517 7.05226 6.36484 7.05226 6.36484Z" fill="white"/>
</svg>