<svg xmlns="http://www.w3.org/2000/svg" width="18" height="18" viewBox="0 0 18 18" fill="none">
  <path d="M14.1744 17.9019C14.0649 17.9023 13.9569 17.8758 13.86 17.8247L9.08861 15.3155L4.31628 17.8247C4.20506 17.8829 4.07979 17.9088 3.95461 17.8996C3.82943 17.8904 3.7093 17.8464 3.60779 17.7726C3.50627 17.6988 3.4274 17.5981 3.38007 17.4818C3.33273 17.3655 3.31882 17.2384 3.3399 17.1146L4.25161 11.8007L0.389193 8.03706C0.29912 7.94934 0.235395 7.83815 0.205226 7.71609C0.175058 7.59403 0.179651 7.46597 0.218484 7.34638C0.257318 7.22679 0.328844 7.12046 0.424969 7.03942C0.521094 6.95837 0.637982 6.90584 0.76241 6.88777L6.09838 6.11259L8.48455 1.27738C8.54019 1.16468 8.62625 1.0698 8.733 1.00345C8.83975 0.937107 8.96293 0.901947 9.08861 0.901947C9.2143 0.901947 9.33748 0.937107 9.44423 1.00345C9.55097 1.0698 9.63703 1.16468 9.69268 1.27738L12.0788 6.11259L17.4144 6.88777C17.5388 6.90577 17.6558 6.95825 17.752 7.03927C17.8481 7.12029 17.9197 7.22661 17.9586 7.34621C17.9975 7.46581 18.0021 7.5939 17.972 7.716C17.9418 7.83809 17.8781 7.94931 17.788 8.03706L13.9256 11.8007L14.8373 17.1146C14.8539 17.2113 14.8491 17.3104 14.8234 17.405C14.7976 17.4997 14.7516 17.5875 14.6883 17.6625C14.6251 17.7375 14.5463 17.7978 14.4574 17.8391C14.3685 17.8805 14.2716 17.9019 14.1735 17.9019H14.1744ZM2.30693 8.02493L5.44402 11.083C5.52203 11.159 5.58043 11.2528 5.61422 11.3564C5.64801 11.46 5.65619 11.5702 5.63804 11.6776L4.89744 15.9954L8.77423 13.9582C8.87113 13.9071 8.97905 13.8804 9.08861 13.8804C9.19818 13.8804 9.30609 13.9071 9.403 13.9582L13.2807 15.9968L12.5392 11.6776C12.5208 11.57 12.5287 11.4596 12.5625 11.3557C12.5962 11.2519 12.6546 11.1579 12.7328 11.0816L15.8703 8.02493L11.535 7.39617C11.4269 7.38046 11.3243 7.33873 11.236 7.27458C11.1477 7.21043 11.0763 7.12577 11.0279 7.02789L9.08861 3.09946L7.14977 7.02789C7.10137 7.12583 7.02989 7.21052 6.94148 7.27468C6.85307 7.33883 6.75038 7.38053 6.64227 7.39617L2.30693 8.02493Z" fill="white"/>
</svg>